<svg width="110" height="40" viewBox="0 0 110 40" fill="none" xmlns="http://www.w3.org/2000/svg">
<g clip-path="url(#clip0_45_3680)">
<path d="M21.1358 8.05225C20.0871 8.05225 19.1934 8.42443 18.4517 9.17151C17.7101 9.91859 17.3379 10.7743 17.3379 11.7387C17.3379 12.7629 17.7101 13.6567 18.4517 14.4174C19.1934 15.178 20.0899 15.5584 21.1358 15.5584C22.1817 15.5584 23.0266 15.178 23.7546 14.4174C24.4827 13.6567 24.8467 12.7629 24.8467 11.7387C24.8467 10.7743 24.4827 9.91587 23.7546 9.17151C23.0266 8.42443 22.1545 8.05225 21.1358 8.05225V8.05225Z" fill="#FE6600"/>
<path d="M17.4545 19.6795C17.4545 21.4535 17.0307 22.8797 16.1858 23.9609C15.3409 25.0421 14.0587 25.5828 12.3418 25.5828C10.6248 25.5828 9.38332 25.0421 8.53844 23.9609C7.69356 22.8797 7.27248 21.4535 7.27248 19.6795V10.0815H0V20.0951C0 22.4776 0.499864 24.583 1.49688 26.4113C2.49389 28.2397 3.92013 29.6686 5.77832 30.6928C7.63379 31.717 9.82342 32.2304 12.3445 32.2304C14.8655 32.2304 17.0606 31.717 18.9324 30.6928C20.8014 29.6686 22.2358 28.2397 23.2328 26.4113C24.2298 24.583 24.7297 22.4776 24.7297 20.0951V18.131H17.4572V19.6795H17.4545Z" fill="#FE6600"/>
<path d="M7.31546 7.50883C8.3342 7.50883 9.20625 7.1285 9.93431 6.36783C10.6624 5.60717 11.0264 4.71339 11.0264 3.68921C11.0264 2.72209 10.6624 1.86634 9.93431 1.11926C9.20625 0.372181 8.3342 0 7.31546 0C6.29671 0 5.37305 0.372181 4.63141 1.11926C3.88976 1.86634 3.51758 2.72209 3.51758 3.68921C3.51758 4.71339 3.88976 5.60717 4.63141 6.36783C5.37305 7.1285 6.26955 7.50883 7.31546 7.50883Z" fill="#FE6600"/>
<path d="M107.702 26.0828C106.746 26.0828 105.833 25.5014 105.833 24.0888L105.828 23.4938V10.0763H99.4272V12.1952C97.7918 10.4213 95.5342 9.53564 92.6519 9.53564C90.8779 9.53564 89.1746 10.0002 87.5391 10.9293C85.9037 11.8584 84.5753 13.1868 83.5484 14.9201C82.5242 16.6533 82.0107 18.6391 82.0107 20.8831C82.0107 23.1271 82.5242 25.1157 83.5484 26.8489C84.5725 28.5821 85.9037 29.9105 87.5391 30.8396C89.1746 31.7687 90.8779 32.2306 92.6519 32.2306C95.6375 32.2306 98.4438 31.1982 100.405 28.9842C101.318 31.1303 103.459 32.236 105.79 32.236C106.863 32.236 107.971 31.9996 109.014 31.527V26.0801C109.014 26.0801 108.159 26.0855 107.699 26.0855L107.702 26.0828ZM97.7836 24.6022C96.8002 25.5856 95.5587 26.0773 94.0645 26.0773C92.5704 26.0773 91.3289 25.5856 90.3454 24.6022C89.362 23.6188 88.8703 22.3773 88.8703 20.8831C88.8703 19.3889 89.362 18.1474 90.3454 17.164C91.3289 16.1806 92.5677 15.6889 94.0645 15.6889C95.5614 15.6889 96.8002 16.1806 97.7836 17.164C98.7671 18.1474 99.2588 19.3862 99.2588 20.8831C99.2588 22.38 98.7671 23.6188 97.7836 24.6022Z" fill="#FE6600"/>
<path d="M74.1212 10.9537C72.4858 10.011 70.7825 9.54102 69.0085 9.54102C66.1261 9.54102 63.8686 10.4294 62.2332 12.2006V10.0816H55.792V40.0028H62.733V30.03C64.2842 31.4997 66.3761 32.2332 69.0085 32.2332C70.7798 32.2332 72.4858 31.7687 74.1212 30.8423C75.7567 29.9132 77.0851 28.5848 78.112 26.8515C79.1362 25.121 79.6496 23.1324 79.6496 20.8885C79.6496 18.6445 79.1362 16.6641 78.112 14.9444C77.0878 13.2275 75.7567 11.8964 74.1212 10.9537V10.9537ZM71.3149 24.6049C70.3315 25.5883 69.0927 26.08 67.5959 26.08C66.099 26.08 64.8602 25.5883 63.8768 24.6049C62.8933 23.6214 62.4016 22.3826 62.4016 20.8858C62.4016 19.3889 62.8933 18.1501 63.8768 17.1667C64.8602 16.1832 66.099 15.6915 67.5959 15.6915C69.0927 15.6915 70.3315 16.1832 71.3149 17.1667C72.2984 18.1501 72.7901 19.3889 72.7901 20.8858C72.7901 22.3826 72.2984 23.6214 71.3149 24.6049Z" fill="#FE6600"/>
<path d="M47.0092 10.9537C45.3737 10.011 43.6704 9.54102 41.8964 9.54102C39.014 9.54102 36.7565 10.4294 35.1238 12.2006V10.0816H28.6826V40.0028H35.6237V30.03C37.1749 31.4997 39.2667 32.2332 41.8991 32.2332C43.6731 32.2332 45.3764 31.7687 47.0119 30.8423C48.6473 29.9132 49.9757 28.5848 51.0026 26.8515C52.0268 25.121 52.5403 23.1324 52.5403 20.8885C52.5403 18.6445 52.0268 16.6641 51.0026 14.9444C49.9785 13.2275 48.6473 11.8964 47.0119 10.9537H47.0092ZM44.2029 24.6049C43.2194 25.5883 41.9806 26.08 40.4838 26.08C38.9869 26.08 37.7481 25.5883 36.7647 24.6049C35.7812 23.6214 35.2895 22.3826 35.2895 20.8858C35.2895 19.3889 35.7812 18.1501 36.7647 17.1667C37.7481 16.1832 38.9869 15.6915 40.4838 15.6915C41.9806 15.6915 43.2194 16.1832 44.2029 17.1667C45.1863 18.1501 45.678 19.3889 45.678 20.8858C45.678 22.3826 45.1863 23.6214 44.2029 24.6049Z" fill="#FE6600"/>
</g>
<defs>
<clipPath id="clip0_45_3680">
<rect width="109.017" height="40" fill="white"/>
</clipPath>
</defs>
</svg>
