<svg width="18" height="18" viewBox="0 0 18 18" fill="none" xmlns="http://www.w3.org/2000/svg">
<path d="M9.19531 15.9351C9.5057 15.9265 9.76463 16.1706 9.77344 16.481C9.78201 16.7915 9.5371 17.0505 9.22656 17.0591C9.15139 17.0612 9.07565 17.062 9 17.062C8.9244 17.062 8.84857 17.0612 8.77344 17.0591C8.46311 17.0503 8.21897 16.7913 8.22754 16.481C8.23635 16.1707 8.4944 15.9266 8.80469 15.9351C8.86948 15.9368 8.93475 15.937 9 15.937C9.06522 15.937 9.13055 15.9368 9.19531 15.9351ZM5.42285 15.6177C5.5499 15.3342 5.88253 15.2074 6.16602 15.3345C6.28403 15.3874 6.40401 15.4365 6.52539 15.4829C6.8156 15.5938 6.96144 15.9193 6.85059 16.2095C6.7397 16.4996 6.41421 16.6445 6.12402 16.5337C5.9828 16.4797 5.84332 16.4224 5.70605 16.3608C5.42266 16.2338 5.29602 15.9011 5.42285 15.6177ZM11.834 15.3345C12.1175 15.2074 12.4511 15.3342 12.5781 15.6177C12.7048 15.901 12.5781 16.2338 12.2949 16.3608C12.1577 16.4223 12.0181 16.4798 11.877 16.5337C11.5868 16.6445 11.2613 16.4996 11.1504 16.2095C11.0395 15.9193 11.1854 15.5938 11.4756 15.4829C11.5967 15.4366 11.7162 15.3872 11.834 15.3345ZM3.16406 13.7437C3.38978 13.5303 3.74556 13.5404 3.95898 13.7661C4.04814 13.8604 4.14011 13.9523 4.23438 14.0415C4.45986 14.255 4.47014 14.6108 4.25684 14.8364C4.04337 15.0621 3.68665 15.0723 3.46094 14.8589C3.35144 14.7553 3.24516 14.6481 3.1416 14.5386C2.9283 14.3129 2.93841 13.9571 3.16406 13.7437ZM14.042 13.7661C14.2555 13.5404 14.6112 13.5302 14.8369 13.7437C15.0625 13.957 15.0725 14.3129 14.8594 14.5386C14.7558 14.6481 14.6486 14.7553 14.5391 14.8589C14.3134 15.072 13.9575 15.062 13.7441 14.8364C13.5307 14.6107 13.5409 14.255 13.7666 14.0415C13.8609 13.9523 13.9528 13.8604 14.042 13.7661ZM1.79102 11.1499C2.0812 11.0391 2.40576 11.1849 2.5166 11.4751C2.56291 11.5963 2.6132 11.7156 2.66602 11.8335C2.79307 12.117 2.6663 12.4506 2.38281 12.5776C2.09948 12.7045 1.76681 12.5776 1.63965 12.2944C1.57814 12.1572 1.51976 12.0177 1.46582 11.8765C1.35497 11.5863 1.50081 11.2608 1.79102 11.1499ZM15.4834 11.4751C15.5942 11.1849 15.9198 11.0391 16.21 11.1499C16.5 11.2608 16.645 11.5863 16.5342 11.8765C16.4803 12.0176 16.4228 12.1573 16.3613 12.2944C16.2343 12.5776 15.9015 12.7043 15.6182 12.5776C15.3347 12.4506 15.2079 12.117 15.335 11.8335C15.3877 11.7157 15.4371 11.5962 15.4834 11.4751ZM9 3.93701C9.31058 3.93701 9.56236 4.18897 9.5625 4.49951V7.60889C9.93846 7.76107 10.2394 8.06107 10.3916 8.43701H12C12.3106 8.43701 12.5624 8.68897 12.5625 8.99951C12.5625 9.31017 12.3107 9.56201 12 9.56201H10.3916C10.1691 10.1117 9.62951 10.4995 9 10.4995C8.17179 10.4993 7.5 9.82778 7.5 8.99951C7.5001 8.37028 7.88809 7.83149 8.4375 7.60889V4.49951C8.43764 4.18912 8.68964 3.93727 9 3.93701ZM1.51855 8.22705C1.82901 8.23562 2.07387 8.49377 2.06543 8.8042C2.06364 8.86899 2.0625 8.93426 2.0625 8.99951C2.0625 9.06474 2.06365 9.13006 2.06543 9.19482C2.074 9.50537 1.8291 9.76437 1.51855 9.77295C1.2081 9.78141 0.949979 9.53655 0.941406 9.22607C0.939332 9.1509 0.9375 9.07516 0.9375 8.99951C0.937503 8.92391 0.939332 8.84808 0.941406 8.77295C0.950221 8.46269 1.20825 8.21859 1.51855 8.22705ZM9 0.937012C13.4527 0.937012 17.0623 4.54687 17.0625 8.99951C17.0625 9.07516 17.0616 9.1509 17.0596 9.22607C17.051 9.53662 16.792 9.78152 16.4814 9.77295C16.1711 9.76414 15.927 9.50522 15.9355 9.19482C15.9373 9.13006 15.9375 9.06473 15.9375 8.99951C15.9373 5.16819 12.8314 2.06201 9 2.06201C8.93475 2.06201 8.86948 2.06315 8.80469 2.06494C8.49426 2.07338 8.23611 1.82853 8.22754 1.51807C8.21908 1.20776 8.46318 0.949733 8.77344 0.940918C8.84857 0.938843 8.9244 0.937015 9 0.937012ZM1.63965 5.70557C1.76673 5.42216 2.09936 5.29534 2.38281 5.42236C2.66626 5.5494 2.79297 5.88206 2.66602 6.16553C2.6131 6.2836 2.56299 6.40346 2.5166 6.5249C2.40576 6.81502 2.08116 6.9608 1.79102 6.8501C1.50082 6.73925 1.35499 6.41374 1.46582 6.12354C1.51979 5.98224 1.5781 5.8429 1.63965 5.70557ZM3.46094 3.14111C3.68665 2.92765 4.04337 2.93787 4.25684 3.16357C4.47002 3.38929 4.45996 3.74512 4.23438 3.9585C4.14006 4.04769 4.04818 4.13957 3.95898 4.23389C3.7456 4.45947 3.38977 4.46954 3.16406 4.25635C2.93835 4.04289 2.92814 3.68616 3.1416 3.46045C3.24506 3.35107 3.35155 3.24457 3.46094 3.14111ZM6.12402 1.46533C6.41423 1.35451 6.73974 1.50033 6.85059 1.79053C6.96129 2.08067 6.81551 2.40527 6.52539 2.51611C6.40395 2.5625 6.28409 2.61261 6.16602 2.66553C5.88255 2.79248 5.54988 2.66577 5.42285 2.38232C5.29583 2.09887 5.42265 1.76625 5.70605 1.63916C5.84339 1.57761 5.98273 1.5193 6.12402 1.46533Z" fill="#FE6600"/>
</svg>
